<mxfile host="app.diagrams.net" modified="2021-02-01T20:30:15.287Z" agent="5.0 (Macintosh; Intel Mac OS X 10_14_6) AppleWebKit/537.36 (KHTML, like Gecko) Chrome/88.0.4324.96 Safari/537.36" etag="D7zBHs9Mip0Gy00x8fvj" version="14.2.9" type="github">
  <diagram id="YVGtKCQuAJrb9fusuUW2" name="Page-1">
    <mxGraphModel dx="746" dy="442" grid="1" gridSize="10" guides="1" tooltips="1" connect="1" arrows="1" fold="1" page="1" pageScale="1" pageWidth="1400" pageHeight="850" math="0" shadow="0">
      <root>
        <mxCell id="0" />
        <mxCell id="1" parent="0" />
        <mxCell id="wvHoCXfjdqKl0tfVTvvo-2" value="&lt;h1&gt;info de pedido&lt;/h1&gt;&lt;p&gt;Lorem ipsum dolor sit amet, consectetur adipisicing elit, sed do eiusmod tempor incididunt ut labore et dolore magna aliqua.&lt;/p&gt;" style="text;html=1;strokeColor=none;fillColor=none;spacing=5;spacingTop=-20;whiteSpace=wrap;overflow=hidden;rounded=0;" vertex="1" parent="1">
          <mxGeometry x="420" y="40" width="190" height="120" as="geometry" />
        </mxCell>
        <mxCell id="wvHoCXfjdqKl0tfVTvvo-5" style="edgeStyle=orthogonalEdgeStyle;rounded=0;orthogonalLoop=1;jettySize=auto;html=1;exitX=1;exitY=0.5;exitDx=0;exitDy=0;" edge="1" parent="1" source="wvHoCXfjdqKl0tfVTvvo-3" target="wvHoCXfjdqKl0tfVTvvo-4">
          <mxGeometry relative="1" as="geometry" />
        </mxCell>
        <mxCell id="wvHoCXfjdqKl0tfVTvvo-3" value="" style="shape=image;html=1;verticalAlign=top;verticalLabelPosition=bottom;labelBackgroundColor=#ffffff;imageAspect=0;aspect=fixed;image=https://cdn3.iconfinder.com/data/icons/file-set-volume-1/512/Artboard_9-128.png" vertex="1" parent="1">
          <mxGeometry x="40" y="290" width="128" height="128" as="geometry" />
        </mxCell>
        <mxCell id="wvHoCXfjdqKl0tfVTvvo-8" value="" style="edgeStyle=orthogonalEdgeStyle;rounded=0;orthogonalLoop=1;jettySize=auto;html=1;" edge="1" parent="1" source="wvHoCXfjdqKl0tfVTvvo-4" target="wvHoCXfjdqKl0tfVTvvo-7">
          <mxGeometry relative="1" as="geometry" />
        </mxCell>
        <mxCell id="wvHoCXfjdqKl0tfVTvvo-4" value="Amazon API Gateway" style="outlineConnect=0;fontColor=#232F3E;gradientColor=none;strokeColor=#ffffff;fillColor=#232F3E;dashed=0;verticalLabelPosition=middle;verticalAlign=bottom;align=center;html=1;whiteSpace=wrap;fontSize=10;fontStyle=1;spacing=3;shape=mxgraph.aws4.productIcon;prIcon=mxgraph.aws4.api_gateway;" vertex="1" parent="1">
          <mxGeometry x="260" y="270" width="80" height="110" as="geometry" />
        </mxCell>
        <mxCell id="wvHoCXfjdqKl0tfVTvvo-11" value="" style="edgeStyle=orthogonalEdgeStyle;rounded=0;orthogonalLoop=1;jettySize=auto;html=1;" edge="1" parent="1" source="wvHoCXfjdqKl0tfVTvvo-6" target="wvHoCXfjdqKl0tfVTvvo-10">
          <mxGeometry relative="1" as="geometry" />
        </mxCell>
        <mxCell id="wvHoCXfjdqKl0tfVTvvo-18" style="edgeStyle=orthogonalEdgeStyle;rounded=0;orthogonalLoop=1;jettySize=auto;html=1;" edge="1" parent="1" source="wvHoCXfjdqKl0tfVTvvo-6" target="wvHoCXfjdqKl0tfVTvvo-17">
          <mxGeometry relative="1" as="geometry" />
        </mxCell>
        <mxCell id="wvHoCXfjdqKl0tfVTvvo-6" value="Amazon SNS" style="outlineConnect=0;fontColor=#232F3E;gradientColor=none;strokeColor=#ffffff;fillColor=#232F3E;dashed=0;verticalLabelPosition=middle;verticalAlign=bottom;align=center;html=1;whiteSpace=wrap;fontSize=10;fontStyle=1;spacing=3;shape=mxgraph.aws4.productIcon;prIcon=mxgraph.aws4.sns;" vertex="1" parent="1">
          <mxGeometry x="430" y="270" width="80" height="100" as="geometry" />
        </mxCell>
        <mxCell id="wvHoCXfjdqKl0tfVTvvo-9" style="edgeStyle=orthogonalEdgeStyle;rounded=0;orthogonalLoop=1;jettySize=auto;html=1;" edge="1" parent="1" source="wvHoCXfjdqKl0tfVTvvo-7" target="wvHoCXfjdqKl0tfVTvvo-6">
          <mxGeometry relative="1" as="geometry" />
        </mxCell>
        <mxCell id="wvHoCXfjdqKl0tfVTvvo-7" value="AWS Lambda" style="outlineConnect=0;fontColor=#232F3E;gradientColor=none;strokeColor=#ffffff;fillColor=#232F3E;dashed=0;verticalLabelPosition=middle;verticalAlign=bottom;align=center;html=1;whiteSpace=wrap;fontSize=10;fontStyle=1;spacing=3;shape=mxgraph.aws4.productIcon;prIcon=mxgraph.aws4.lambda;" vertex="1" parent="1">
          <mxGeometry x="260" y="418" width="80" height="100" as="geometry" />
        </mxCell>
        <mxCell id="wvHoCXfjdqKl0tfVTvvo-14" value="" style="edgeStyle=orthogonalEdgeStyle;rounded=0;orthogonalLoop=1;jettySize=auto;html=1;" edge="1" parent="1" source="wvHoCXfjdqKl0tfVTvvo-10" target="wvHoCXfjdqKl0tfVTvvo-12">
          <mxGeometry relative="1" as="geometry" />
        </mxCell>
        <mxCell id="wvHoCXfjdqKl0tfVTvvo-10" value="Amazon SQS" style="outlineConnect=0;fontColor=#232F3E;gradientColor=none;strokeColor=#ffffff;fillColor=#232F3E;dashed=0;verticalLabelPosition=middle;verticalAlign=bottom;align=center;html=1;whiteSpace=wrap;fontSize=10;fontStyle=1;spacing=3;shape=mxgraph.aws4.productIcon;prIcon=mxgraph.aws4.sqs;" vertex="1" parent="1">
          <mxGeometry x="580" y="270" width="80" height="100" as="geometry" />
        </mxCell>
        <mxCell id="wvHoCXfjdqKl0tfVTvvo-12" value="AWS Lambda" style="outlineConnect=0;fontColor=#232F3E;gradientColor=none;strokeColor=#ffffff;fillColor=#232F3E;dashed=0;verticalLabelPosition=middle;verticalAlign=bottom;align=center;html=1;whiteSpace=wrap;fontSize=10;fontStyle=1;spacing=3;shape=mxgraph.aws4.productIcon;prIcon=mxgraph.aws4.lambda;" vertex="1" parent="1">
          <mxGeometry x="740" y="260" width="80" height="100" as="geometry" />
        </mxCell>
        <mxCell id="wvHoCXfjdqKl0tfVTvvo-15" value="genera archivos de pedidod" style="text;html=1;strokeColor=none;fillColor=none;align=center;verticalAlign=middle;whiteSpace=wrap;rounded=0;" vertex="1" parent="1">
          <mxGeometry x="760" y="370" width="40" height="20" as="geometry" />
        </mxCell>
        <mxCell id="wvHoCXfjdqKl0tfVTvvo-16" value="" style="shape=image;html=1;verticalAlign=top;verticalLabelPosition=bottom;labelBackgroundColor=#ffffff;imageAspect=0;aspect=fixed;image=https://cdn3.iconfinder.com/data/icons/file-set-volume-1/512/Artboard_9-128.png" vertex="1" parent="1">
          <mxGeometry x="675" y="250" width="50" height="50" as="geometry" />
        </mxCell>
        <mxCell id="wvHoCXfjdqKl0tfVTvvo-17" value="Amazon SQS" style="outlineConnect=0;fontColor=#232F3E;gradientColor=none;strokeColor=#ffffff;fillColor=#232F3E;dashed=0;verticalLabelPosition=middle;verticalAlign=bottom;align=center;html=1;whiteSpace=wrap;fontSize=10;fontStyle=1;spacing=3;shape=mxgraph.aws4.productIcon;prIcon=mxgraph.aws4.sqs;" vertex="1" parent="1">
          <mxGeometry x="520" y="440" width="80" height="100" as="geometry" />
        </mxCell>
      </root>
    </mxGraphModel>
  </diagram>
</mxfile>
